<svg width="195" height="195" viewBox="0 0 195 195" fill="none" xmlns="http://www.w3.org/2000/svg">
<path d="M112.877 84.1372C101.179 84.1372 90.9298 90.3231 85.2116 99.6023H140.54C134.822 90.3231 124.575 84.1372 112.877 84.1372Z" fill="#DCB012"/>
<path d="M112.877 80.9676C116.858 80.9676 120.085 77.738 120.085 73.7568C120.085 69.7761 116.858 66.5491 112.877 66.5491C108.896 66.5491 105.67 69.7761 105.67 73.7568C105.669 77.738 108.896 80.9676 112.877 80.9676Z" fill="#DCB012"/>
<path d="M175.302 93.8369C159.213 95.1543 153.03 108.51 151.206 113.21L140.412 104.503H85.0524C81.3036 108.252 72.9411 115.173 63.7159 113.442C54.4877 111.714 40.5657 87.9496 27.9608 85.474C11.8147 82.301 13.8321 86.6257 17.8703 89.5119C20.082 91.0936 29.0428 102.807 43.5311 120.939C62.9549 145.248 78.1306 161.308 111.289 161.308C129.781 161.308 145.303 148.99 153.026 139.567C161.176 142.32 174.496 141.757 186.547 130.743C203.27 115.463 192.89 92.395 175.302 93.8369ZM178.767 122.228C172.257 128.178 166.019 129.426 161.933 129.426C160.571 129.426 159.419 129.292 158.468 129.104C158.898 126.142 160.174 121.754 161.425 118.779C161.498 118.603 161.568 118.426 161.631 118.25C164.546 110.231 169.462 105.887 176.244 105.33C176.454 105.314 176.661 105.305 176.864 105.305C180.842 105.305 182.465 108.697 182.869 109.738C184.438 113.779 182.904 118.447 178.767 122.228Z" fill="#DCB012"/>
<path d="M124.555 163.994C120.317 164.993 115.872 165.576 111.289 165.576C106.207 165.576 101.367 165.213 96.7558 164.557C90.0447 169.664 83.8969 176.325 83.8969 184.369H111.031H138.169C138.169 176.026 131.553 169.168 124.555 163.994Z" fill="#DCB012"/>
</svg>
