<svg width="667" height="614" viewBox="0 0 667 614" fill="none" xmlns="http://www.w3.org/2000/svg">
<path fill-rule="evenodd" clip-rule="evenodd" d="M73.5702 0.0964432L640.237 566.763L593.096 613.904L299.608 320.414L299.609 576.824L126.595 443.296H0V176.629H126.4L142.864 163.671L26.4298 47.2369L73.5702 0.0964432ZM564.528 43.8693C670.372 162.056 693.433 327.276 633.716 465.959L582.232 414.472C619.528 303.529 596.291 177.016 512.52 85.475L564.528 43.8693ZM190.35 211.156L149.512 243.296H66.6667V376.629H149.316L232.943 441.147L232.942 253.748L190.35 211.156ZM432.676 149.352C477.405 199.234 497.607 263.053 493.283 325.526L416.349 248.592C408.585 227.804 396.671 208.19 380.607 191.007L432.676 149.352ZM299.609 40.3333L299.608 131.854L248.389 80.6355L299.609 40.3333Z" fill="white"/>
</svg>
